<svg width="675" height="166" viewBox="0 0 675 166" fill="none" xmlns="http://www.w3.org/2000/svg"><path d="M137.8 82.4v1.9l-.1 1.3v.3a61 61 0 0 1-.3 3.4c0 .5 0 1-.2 1.7l-.1 1.3-.2 1-.2 1.2-.3 1.5-.3 1.5v.2a44.4 44.4 0 0 1-.8 3v.1l-.5 1.6-.5 1.3-.1.5-.5 1.3-.4 1.2-.3.5-.4 1.1-.1.3-.6 1.4v.1l-.6 1.2c0 .2-.2.4-.3.5l-.5 1a26.2 26.2 0 0 1-1.3 2.4l-.2.4-.6 1.1a93 93 0 0 1-2.1 3.3l-1.2 1.7-.8 1.2-.2.2-1 1.2v.2a83.5 83.5 0 0 1-2.2 2.5v.1l-1.2 1.2-1 1.1-.4.3-.6.7-.7.7-1 1-1.3 1v.1l-.4.3a61.5 61.5 0 0 1-2.5 2l-.7.6-1.2.9h-.1l-1.3 1-.3.2-1.2.8-.6.4a97.1 97.1 0 0 1-3 1.7l-.5.3-.7.4-.2.1-2 1-.3.2a70.6 70.6 0 0 1-2.8 1.3l-.6.2-1.1.5-1.5.5h-.1a39 39 0 0 1-4.7 1.6l-1.6.4-1.6.4h-.2l-1.4.4h-.3l-1.2.3H82l-1.3.3-1.5.2h-.5l-1.4.2-1.7.2H74l-1.5.1h-5.7l-1.4-.1h-.2l-1-.2h-.8l-.7-.1-1-.1-2.9-.5c-9.4-1.6-17.8-7-22.8-15.1v-.3a24.4 24.4 0 0 1-3.6-12.5v-1.9c.1-2.3.6-4.5 1.4-6.7 1-2.6 2.2-5 3.7-7.4 2.7-4.5 6.7-8 11.5-10.2a42.4 42.4 0 0 1 17.7-4c10.8 0 20.6 4.1 28 10.8h.1A67.2 67.2 0 0 0 110 27.8a67.5 67.5 0 0 1 25.2 35.8l.2.7a42.2 42.2 0 0 1 .3 1.3l.4 1.5.4 1.7.2 1.3.1.7a58.5 58.5 0 0 1 .6 4.2v.8l.2 1.4.1 1.6v3.6Z" fill="url(#paint0_linear)"/><path d="M104.7 24.3a41.4 41.4 0 0 0-13.2 9.5c-6.5 6.9-10.7 16-11.3 26.1-.1 1.5-.4 2.9-.9 4.2l-.1.4a42.3 42.3 0 0 1-30.5 25.8c-1 .2-2.4.3-3.3.3a25.2 25.2 0 0 0-23.3 34.9 67.4 67.4 0 0 1 35.6-92.8 67.3 67.3 0 0 0-31.7 17A49 49 0 0 0 13 70.6a67.4 67.4 0 0 0 9.6 59.5A67 67 0 0 1 7.1 59.1a67.4 67.4 0 0 1 97.6-34.8Z" fill="#8DB53F"/><path d="M223.1 116v4.3h-57.9V38.9h57.4v4.3h-52.1v32.6h49V80h-49V116H223Z" fill="#81B841"/><path d="M280.9 107.7h-.3c-5 9.3-12.5 14-23.5 14-18.6 0-26.6-14.4-26.6-30.6 0-17.3 8.9-30.8 27.4-30.8 10 0 19.5 5.2 22.7 14.5h.3v-36h4.5v81.5h-4.5v-12.6Zm-.2-16.6c0-13.7-7-27-22.8-27-16.2 0-22.8 12.8-22.8 27 0 13.8 7.2 26.8 23 26.8 15.5 0 22.6-13.4 22.6-26.8Z" fill="#81B841"/><path d="M303.8 91.5c-.3 13.8 7.4 26.4 22.6 26.4 11.6 0 19.8-6.6 22-17.5h4.5c-2.4 13.7-12 21.2-26.5 21.2-18 0-27.4-13.4-27.1-29.6-.3-16 8.6-31.7 27-31.7 19.3 0 27.9 14.5 27 31.2h-49.5Zm45-3.7c-.2-12.3-8.3-23.8-22.4-23.8-13.6 0-21.7 12.1-22.6 23.8h45Z" fill="#81B841"/><path d="M366.1 61.7h4.6v12.5h.2c3.1-8.8 12.5-14 22-14 21.6 0 21.9 16.6 21.9 23.8v36.3h-4.6v-37c0-6.1-.7-19.3-17.4-19.3-13.8 0-22.1 10.2-22.1 24.6v31.7H366V61.7Z" fill="#81B841"/><path d="M436.4 80.1v40.2h-5.3V38.9h53.6v4.3h-48.3v32.6h43.5v4.3h-43.5Z" fill="#81B841"/><path d="M539.1 109.4c0 3.4 0 7.1 4 7.1l3.4-.3v3.6c-1.3.2-2.5.5-3.7.5-7.1 0-8.2-3.8-8.2-8.6v-3h-.3c-2.8 6.9-11 13-22.8 13-11.6 0-20.5-4.3-20.5-16.6 0-13.7 12.4-16.5 22.6-17.3 20.3-1.4 21.1-2.6 21.1-12.2 0-2.6-3-11.5-17-11.5-11 0-18.4 5.4-19 15.6h-4.5c.6-12.9 9-19.4 23.4-19.4 10.8 0 21.5 3.2 21.5 15.3v33.8ZM534.6 87c-3.6 3.9-13.4 3.4-22.2 4.5-10.8 1.2-16.9 4.8-16.9 13.6 0 7 5.4 12.8 16.1 12.8 20.7 0 23-16.9 23-20V87Z" fill="#81B841"/><path d="M560.3 74.7h.3c2.4-7.7 12.5-13.8 23.6-13.4v4.4c-4.8-.6-11.5.5-17 5.7-4.5 4.4-6.4 8-7 16.8v32h-4.5V61.8h4.6v13Z" fill="#81B841"/><path d="M591.2 61.7h4.6v12h.2c2-7.5 10-13.4 19.2-13.4 11.7 0 17.2 6.4 18.6 12.4h.2c3.6-8 9.5-12.4 19.5-12.4 11 0 19.2 6.2 19.2 20v40h-4.5V80c0-14.9-11.2-16-14.7-16-11.1 0-19.3 7.5-19.3 21.5v34.7h-4.5V80c0-14.7-10.5-16-14.5-16-8.7 0-19.4 6.5-19.4 21.5v34.7h-4.6V61.7Z" fill="#81B841"/><defs><linearGradient id="paint0_linear" x1="32.2" y1="88.8" x2="137.8" y2="88.8" gradientUnits="userSpaceOnUse"><stop stop-color="#50ABA3"/><stop offset="1" stop-color="#93C2AE"/></linearGradient></defs></svg>