<svg viewBox="0 0 1000 1000" width="1000" height="1000" xmlns="http://www.w3.org/2000/svg"><path d="M645 802.79a88.44 88.44 0 00-27.61 4.39 88.64 88.64 0 010 168.43A88.61 88.61 0 10645 802.79z" fill="#eaad34"/><ellipse cx="617.35" cy="891.39" fill="#fcc74f" rx="60.99" ry="84.21"/><rect fill="#c64242" height="347.01" rx="35.87" transform="rotate(18.42 536.056 597.903)" width="142.59" x="464.67" y="424.25"/><rect fill="#f28686" height="347.01" rx="35.87" transform="rotate(18.42 468.009 575.232)" width="142.59" x="396.64" y="401.59"/><path d="M565.61 424.75a26.15 26.15 0 0116.54 33.07L489 737.43A26.14 26.14 0 01455.94 754" fill="none" stroke="#49281f" stroke-linecap="round" stroke-miterlimit="10" stroke-width="2"/><path d="M548 418.87l-68-22.66a26.14 26.14 0 00-33.06 16.54l-16.05 48.16s81.56-40.2 117.15-42z" fill="#49281f"/><path d="M433.57 131.31s-28.35 102.33-44.69 105.74-11.8-18.87-9-36.17c-17.9 25.79-24.48 28.31-24.48 28.31s24.27-100.12 26.79-131.84 63.5-29 88.23-29.92c23.41-.84 96.7-30.36 114.08-46.1l18.36 29.35s-136 91.89-169.29 80.63z" fill="#fc927a"/><path d="M659.6 308.6L486.53 172.17a28.18 28.18 0 00-26.48-4.56l-80 27 22 246.54 249.09-83.73c21.22-7.1 26.05-34.95 8.46-48.82z" fill="#bcc17c"/><path d="M367.68 240.75s51.59-15.21 93.89 29.58c70.06-30.5 144.94-3.58 144.94-3.58l-119.39-94.51s-6.73-11.83-33-2.62S380 194.5 380 194.5z" fill="#49281f"/><path d="M564.74 340.49L379.67 194.6 320.3 422.66c-5.64 21.68 15 41 36.26 33.82l199.71-67.14c21.23-7.13 26.06-34.99 8.47-48.85z" fill="#dee099"/><path d="M564.74 340.49L379.67 194.6M617.35 975.61a88.61 88.61 0 100-168.43" fill="none" stroke="#49281f" stroke-linecap="round" stroke-miterlimit="10" stroke-width="2"/><path d="M368.43 240.65l11.24-46.05 50.57 39.46s-30.49-26.38-61.81 6.59z" fill="#49281f"/><path d="M478.63 91.45s-62 1.86-71.37 16.46-38.49 97-49.58 116.57 3.16 25.25 19.67 8.12 62.25-88.53 62.25-88.53 51-8.59 61.25 9.32-65.93 73.33-28 106c14.07 3.84 19.38-37.4 43.58-51.57 14.51-8.49 32.49-16.44 35.9-23.43s55.28-53.06 92.49-66.62C624.1 83.09 588 26.92 588 26.92s-53.11 56.56-109.37 64.53z" fill="#fc927a"/><g fill="none" stroke="#49281f" stroke-linecap="round" stroke-miterlimit="10" stroke-width="2"><path d="M478.63 91.45s-62 1.86-71.37 16.46-38.49 97-49.58 116.57 3.16 25.25 19.67 8.12 62.25-88.53 62.25-88.53 18.51-3.12 35.47-1.68c11.2 1 21.71 3.88 25.78 11 10.23 17.9-65.93 73.33-28 106"/><path d="M377 179.73s8.23-91.81 28.65-96.11c25.78-5.43 58.8-.81 65.53-4.05M482.42 253.39a23.78 23.78 0 01.17-21.92 6.19 6.19 0 017.55-3A17.11 17.11 0 01495 231M362.22 226.12s10.2-5.1 10.86-16.17-5-8.07-5-8.07"/></g><ellipse cx="614.66" cy="69.55" fill="#fc927a" rx="21.43" ry="56.87" transform="rotate(-32.03 614.68 69.542)"/><rect fill="#49281f" height="34.62" rx="17.31" width="497.02" x="318.97" y="768.17"/><rect fill="#c0e4f9" height="34.62" rx="17.31" width="497.02" x="253.86" y="768.17"/><rect fill="#bcc17c" height="80.78" rx="14.32" width="52.75" x="713.78" y="687.39"/><rect fill="#dee099" height="80.78" rx="14.32" width="52.75" x="676.69" y="687.39"/><path d="M729.45 697.83v59.9A10.44 10.44 0 01719 768.17h-31.87" fill="none" stroke="#49281f" stroke-linecap="round" stroke-miterlimit="10" stroke-width="2"/><g fill="#e8f5fc"><path d="M101 689.16h56a64.93 64.93 0 0164.93 64.93V980H36V754.09a64.93 64.93 0 0165-64.93zM318.13 980a91.85 91.85 0 11183.69 0M751.12 978.54l106.42-180.61 106.42 180.61z"/></g></svg>