<svg viewBox="0 0 1000 1000" width="1000" height="1000" xmlns="http://www.w3.org/2000/svg"><rect fill="#c0e4f9" height="146.56" rx="17.99" width="112.61" x="20" y="417.19"/><rect fill="none" height="129.32" rx="15.87" stroke="#fff" stroke-linecap="round" stroke-miterlimit="10" stroke-width="2" width="99.36" x="26.62" y="425.81"/><path d="M97.67 461.22h45.68v16.43H97.67a8.22 8.22 0 01-8.22-8.22 8.22 8.22 0 018.22-8.21zM97.67 503.29h45.68v16.43H97.67a8.22 8.22 0 01-8.22-8.22 8.22 8.22 0 018.22-8.21z" fill="#49281f"/><rect fill="#fff" height="515.27" rx="37.56" width="665.12" x="314.88" y="131.95"/><path d="M895.87 322v-21.41a13.8 13.8 0 00-13.8-13.81h-466a13.81 13.81 0 00-13.81 13.81v211.62A13.81 13.81 0 00416.1 526h466a13.8 13.8 0 0013.8-13.81v-21.34a13.8 13.8 0 0113.81-13.8 13.8 13.8 0 0013.8-13.8v-113.7a13.8 13.8 0 00-13.8-13.8A13.8 13.8 0 01895.87 322z" fill="#c0e4f9"/><rect fill="#e8f5fc" height="190.27" rx="25.46" width="444.09" x="427.04" y="311.26"/><path d="M558.06 311.27H444.61A17.57 17.57 0 00427.27 326v160.78a17.58 17.58 0 0017.34 14.75h113.45z" fill="#f28686"/><rect fill="none" height="190.27" rx="25.46" stroke="#fff" stroke-linecap="round" stroke-miterlimit="10" stroke-width="2" width="444.09" x="427.04" y="311.26"/><path d="M314.88 202.92v-47.3a25 25 0 0125-25H955a25 25 0 0125 25v47.3z" fill="#fcd2d2"/><g fill="#f28686"><circle cx="351.03" cy="167.44" r="9.2"/><circle cx="393.09" cy="167.44" r="9.2"/><circle cx="435.16" cy="167.44" r="9.2"/></g><g fill="none" stroke="#49281f" stroke-linecap="round" stroke-miterlimit="10" stroke-width="2"><path d="M922.16 156.93h32.87M922.16 166.78h32.87M922.16 176.64h32.87"/><rect height="515.27" rx="37.56" width="665.12" x="314.88" y="131.95"/></g><path d="M670.05 347.4s15.35-4.35 24.53 4 8.68 21.21 4 25.21c15.41 4 19.49 26.56 5.89 34.77s-27.67-1.05-27.67-1.05-21.79 14-36.18-7.07A152.67 152.67 0 00654.28 387l-1.09-15.6c-.35-10.65-2.33-28.56-2.33-28.56" fill="#c64242"/><path d="M556 834.14C522.57 688 599.81 549.55 599.81 549.55l67.1-3.81s-12.24 185-32.61 252c17.08 28.26 25.63 71.63 25.63 71.63H564z" fill="#bcc17c"/><path d="M353.9 459a153 153 0 0123.91 3.36c56.66 12.51 120.58 17.34 120.58 17.34l76.1-62.52s40.33-31.34 62.8 7.4c0 0-76.86 131.22-191.22 100.82-55.88-13.93-77.82-33.21-94.16-39.3M314.43 478.71c2.54 3.44 9.19 29.46-6.43 32.47s-23.94 2.79-26.26-1.35c0 0-8.18-13.8 31.53-41.75 14.56-3.93 1.16 10.63 1.16 10.63z" fill="#fc927a"/><g fill="none" stroke="#fff" stroke-linecap="round" stroke-miterlimit="10" stroke-width="2"><path d="M453.04 311.31v188.03M480.64 311.31v188.03M508.24 311.31v188.03M535.85 311.31v188.03"/></g><path d="M363.32 460c-43.91-11.92-67.41 9.38-84.11 6.84-4.06-.55-5.45 14.41 21.53 13.16 2.06 13 14.28 20.45 24.69 18.64s6.11 15 6.11 15 15.21-26.53 26.4-26.33" fill="#fc927a"/><path d="M279.21 466.87c-4.06-.55-5.45 14.41 21.53 13.16 2 13.61 19.77 17.58 30.19 15.76" fill="none" stroke="#49281f" stroke-linecap="round" stroke-miterlimit="10" stroke-width="2"/><path d="M397.42 467.12S385 461 378.29 462.5s-15.27 21.38-7.7 33.09c5.91 6.25 11.84 6.17 11.84 6.17z" fill="#fcc74f"/><path d="M282 467.24l-.18.42a1.56 1.56 0 001.31 2.16 9.1 9.1 0 007.24-2.46" fill="none" stroke="#49281f" stroke-linecap="round" stroke-miterlimit="10" stroke-width="2"/><path d="M614.58 398.79s-59.81 3.94-117.83 74.73c-15.92 10-66.07-16.25-105.87-8.09-10.55 6.21-13.94 18.94-14.94 28.33a17.79 17.79 0 008.48 17.09c29.57 18 132.1 49.29 220.3-39.77 42.58-31.02 9.86-72.29 9.86-72.29z" fill="#fcc74f"/><path d="M384.42 510.85c29.57 18 132.1 49.29 220.3-39.77" fill="none" stroke="#49281f" stroke-linecap="round" stroke-miterlimit="10" stroke-width="2"/><path d="M504.82 869.36c0-45.34 14.42-89.05 30.89-138.67 18.11-54.55 56.25-114.18 89.38-161 97.93-116.33 83.47 32.2 83.47 32.2s.66 76.9-73.61 163c-21.92 25.42 0 65.07-22.34 104.5" fill="#dee099"/><path d="M574.08 410.91s82.61-32.42 142.24-11c6.85 71.38-8.26 164.26-8.26 164.26s-78.87 15.12-109.72-9.66c-2.26-32.17-8.34-102.28-24.26-143.6z" fill="#fcc74f"/><path d="M664.53 613.7c-11 28.57-39.34 94.95-62.44 129.48-42.72 58.49-47.32 126.18-47.32 126.18" fill="none" stroke="#fff" stroke-linecap="round" stroke-miterlimit="10" stroke-width="2"/><path d="M751.09 595.73c-7.86 28.24.26 53.15-5.09 69-1.23 3.87 13.11 7.8 16.53-18.72 13.92 4.33 26.89-5 26.92-15.45s12.46 4 12.46 4-24.87-29-22.42-44.21" fill="#fc927a"/><path d="M746.84 662.08l.38.24a1.54 1.54 0 002.33-.89 9.05 9.05 0 00-1.16-7.49" fill="none" stroke="#49281f" stroke-linecap="round" stroke-miterlimit="10" stroke-width="2"/><path d="M783.78 626.92s-5.8-7.3.6-7.69c6.58-.4 17.67 13.1 19.52 20s-.94 8.33-3.81 9.47-16.31-21.78-16.31-21.78z" fill="#fc927a"/><path d="M799.44 630.85a28.67 28.67 0 014.46 8.42s1.45 4.8.09 6.48" fill="none" stroke="#49281f" stroke-linecap="round" stroke-miterlimit="10" stroke-width="2"/><path d="M776 630.37s-4.26-7.81 2-9.19c5.44-.6 19.63 18.66 22.08 27.56s-4.38 12.87-8.78 10.73-15.3-29.1-15.3-29.1z" fill="#fc927a"/><path d="M794.82 638a44.77 44.77 0 015.27 10.72" fill="none" stroke="#49281f" stroke-linecap="round" stroke-miterlimit="10" stroke-width="2"/><path d="M768.74 634.73s-4.51-7.74.4-9.24 17.44 12.37 22.79 25.48-.27 20.18-9.57 16.06c-2.02-10.11-2.63-24.4-13.62-32.3z" fill="#fc927a"/><path d="M787.94 643.08a58.42 58.42 0 014 7.89 24.37 24.37 0 012.07 9.42" fill="none" stroke="#49281f" stroke-linecap="round" stroke-miterlimit="10" stroke-width="2"/><path d="M765.82 644.47c-1.77-4-2.91-6.89-1.13-9.85 1.48-2.45 6.36-4.62 16.1 14.12 6.12 11.77 4.54 19.44.43 23.22a6.71 6.71 0 01-11.15-4 56 56 0 01-.48-5.86c-.42-12.26-10.14-19.15-10.14-19.15" fill="#fc927a"/><path d="M784.08 667.67c1.48-4.41 1-10.73-3.29-18.93" fill="none" stroke="#49281f" stroke-linecap="round" stroke-miterlimit="10" stroke-width="2"/><path d="M747.64 621.8c2.65-37.91 16.06-91.2 57.45-156.91-46.44-14.65-89.43-2.37-89.43-2.37s-13.88-3.93-22.4-21.43-.52-47.33-.52-47.33 177.55-13.92 163.68 70.3c-11.11 67.45-86.23 107.23-81.66 154.25" fill="#fc927a"/><path d="M754 559.4s-3.47 10.55-2.55 19.35a5.84 5.84 0 003.28 4.65c9.3 4.32 19.84 8.36 25.92 7.12a5.2 5.2 0 002.62-1.46c6.65-6.63 7.83-13.34 7.83-13.34z" fill="#fcc74f"/><path d="M715.62 462.66s41.32 6.16 79.75 4.16c-17.14 19.83-35.67 65.78-44.49 89.34-3.16 8.44 9.19 21.13 17.88 23.48 9.18 2.49 20.38 2.31 27.73-1.95 14.25-7.86 79.67-79.66 69.15-127.64-9.32-42.51-62.44-64.41-195.2-57.18-20.31 9.24 15.17 66.83 45.18 69.79z" fill="#fcc74f"/><path d="M699.36 462.54s51.27 3.94 96 4.28c-17.14 19.83-35.67 65.78-44.49 89.34" fill="none" stroke="#49281f" stroke-linecap="round" stroke-miterlimit="10" stroke-width="2"/><path d="M699.36 462.54s7.1.54 18.32 1.25l-1.16 22.59s-3.58-9.68-7.3-14.64a45.86 45.86 0 00-9.86-9.2z" fill="#49281f"/><path d="M613.78 299.7s-23.59 1.38-22.21 25c-10.39 3.78-15 15-9.71 25.83s19.67 11.76 25.18 6.65 6.74-57.48 6.74-57.48z" fill="#c64242"/><path d="M609 316.23s-27.06 52.49 13.19 62.38C621 399.82 621 409.69 621 409.69s25.42.59 33.68-16.94c-1.47-21.31-4.2-69.25-4.2-69.25s-22.06-19.44-41.48-7.27z" fill="#fc927a"/><path d="M650.86 342.88s-1.26-12.82-5.1-5.51c-4.51 8.56-4 15.41-4 15.41s-3.67-3.18-2.5-14.14c0 0-5.53 5.86-11.83 1.82-3.33-2.4-2.4-6.92-2.4-6.92s-11.18 4.51-18.5-2.6-11-30.41 9-36.11 31.89 9.95 31.89 9.95 16.31.24 24.06 16.1-1.39 26.52-1.39 26.52" fill="#c64242"/><path d="M641.75 352.78s-3.67-3.18-2.5-14.14c0 0-5.53 5.86-11.83 1.82-3.33-2.4-2.4-6.92-2.4-6.92s-11.18 4.51-18.5-2.6c-2.75-2.67-5-7.61-5.64-13.05" fill="none" stroke="#49281f" stroke-linecap="round" stroke-miterlimit="10" stroke-width="2"/><path d="M642.41 355.46s.43-21.24 7.25-21c10.62.4 7.9 21.94-3.88 22.25" fill="#fc927a"/><path d="M622.17 378.61s10.92 2.31 18-4.25c-1.44 7.92-13.56 17.23-18.58 19.41z" fill="#c64242"/><g fill="none" stroke="#49281f" stroke-linecap="round" stroke-miterlimit="10" stroke-width="2"><path d="M647.65 347.54s.38-7.67 3.68-6M639.77 298.19s8.1 3.57 11.08 15.07M673 342.14a35.18 35.18 0 01-6.48 10.42"/></g><g fill="#dee099"><path d="M595.52 557.18c44 21.69 110.41 11.83 110.41 11.83s32.87-65.07 12.49-67c-26.94 2.63-61.12-39.43-61.12-39.43l-62.44 2-9.2 23.66s-.48-3.11-.33 12.35c.24 24.12 3.78 46.57 10.19 56.59z"/><path d="M673.07 484.88s-16.43-74.26 12.49-92c-7.89-9.2-17.09 0-17.09 0s-18.4 19.72-22.34 76.24M594.86 469.77s-3.28-53.9 9.86-71.64c6.57-5.26 10.19.88 10.19.88s-12.16 39.87-1.65 69.44"/></g><path d="M617.21 400.76s-1.58-8.64 4.47-9.25 20.73 1.55 32.45-6.76c5-.84 9.08 6.15 6.46 11.41s-27.61 25-35.5 20.37-7.88-15.77-7.88-15.77z" fill="#fcc74f"/><path d="M635.57 551.24a32.88 32.88 0 01-34.31-31.36l-1.06-23.63s33.44 11 61-1.51c5.08-2.29 5.68 22.19 5.68 22.19a32.87 32.87 0 01-31.31 34.31z" fill="#bcc17c"/><g fill="none" stroke="#fff" stroke-linecap="round" stroke-miterlimit="10" stroke-width="2"><path d="M661.24 567.69s29.58 5.26 46.67-3.28M653.36 596s-.66 18.4 27.6 23"/><circle cx="657.96" cy="470.42" r="5.26"/><circle cx="604.72" cy="470.42" r="5.26"/></g><path d="M661.24 494.74l-61.12 1.32s35.49 13.14 61.12-1.32z" fill="#49281f"/><g fill="none" stroke-linecap="round" stroke-miterlimit="10" stroke-width="2"><path d="M690.82 502.63s16.29 9.5 34.76 6.72" stroke="#fff"/><g stroke="#49281f"><path d="M759.17 571a21.54 21.54 0 00-2.63 9.2M782.17 580.18s-1.31 5.26-3.94 7.89M765.74 574.92a30.27 30.27 0 00-3.28 9.21M773 577.55s-1.31 5.92-3.28 8.55M378 465.17a21.56 21.56 0 018.85 3.26M370.09 488.83s3.94 3.28 7.23 3.28M374 472.4s7.23.65 9.2 3.28M372.06 480.28s3.94 3.29 7.89 3.29M655.33 388.93a17.76 17.76 0 013.28 7.23M623.12 394.19a17.42 17.42 0 00-1.53 8.23"/></g></g><rect fill="#c0e4f9" height="69.67" rx="16.7" width="150.51" x="402.29" y="544.69"/><rect fill="#e8f5fc" height="44.03" rx="8.68" width="64.41" x="415.44" y="557.18"/><g fill="none" stroke="#49281f" stroke-linecap="round" stroke-miterlimit="10" stroke-width="2"><path d="M648.76 391.56a32.67 32.67 0 012.24 8.06M629.7 394.19s-.66 6.57 0 9.2M638.9 393.53s2 5.91 2 9.86"/></g><path d="M344.51 844.12a107.18 107.18 0 01-42.17-8.12 94.11 94.11 0 01-45.75-41.59c-12-21.59-16.7-48.08-13.23-74.59 3.55-27.24 15.62-52.55 34-71.27 32.23-32.87 56-59 67.4-80C354.79 550 355.16 536 346 520.41 331.16 495 273.7 498 252.81 501.23a6.57 6.57 0 11-2-13 231 231 0 0143.69-2c32.1 1.76 53.27 11 62.9 27.48 11.49 19.64 11.16 38.46-1.08 61-12.1 22.31-36.56 49.3-69.57 83s-41.17 89.8-18.67 130.29a81.07 81.07 0 0039.39 35.88c19 8 41.61 9.26 67.11 3.58 32.94-7.34 60.59-23.46 82.17-47.92 17.41-19.72 31-44.91 40.4-74.89 16.15-51.46 14.27-99.39 14.25-99.86a6.57 6.57 0 1113.13-.58c.09 2 2 50.74-14.83 104.37-10 31.75-24.46 58.55-43.09 79.66-23.46 26.58-53.46 44.1-89.18 52a151.38 151.38 0 01-32.92 3.88z" fill="#609fd8"/><path d="M328.92 493s3.09-8.89 6.89-3.65-1.6 22.17-6.52 27.51-7.61 3.71-10.14 1.88 9.77-25.74 9.77-25.74z" fill="#fc927a"/><path d="M328.92 493s3.09-8.89 6.89-3.65-1.6 22.17-6.52 27.51" fill="none" stroke="#49281f" stroke-linecap="round" stroke-miterlimit="10" stroke-width="2"/><path d="M321.76 488.23s4.35-7.87 8.93-3.26c3.46 4.32-5.28 26.86-11.54 33.77s-13.35 3.23-13.91-1.68 16.52-28.83 16.52-28.83z" fill="#fc927a"/><path d="M321.76 488.23s4.35-7.87 8.93-3.26c3.46 4.32-5.28 26.86-11.54 33.77" fill="none" stroke="#49281f" stroke-linecap="round" stroke-miterlimit="10" stroke-width="2"/><path d="M314.11 484.41s4.16-8 8.1-4.67-1.1 21.58-9.39 33.24-17.36 10.71-18.88.54c7.53-7.2 19.39-15.46 20.17-29.11z" fill="#fc927a"/><path d="M314.11 484.41s4.16-8 8.1-4.67-1.1 21.58-9.39 33.24a24.68 24.68 0 01-6.91 6.88" fill="none" stroke="#49281f" stroke-linecap="round" stroke-miterlimit="10" stroke-width="2"/><path d="M281.5 509.33c3.54 7.81 16.49 11.41 27.19-7.05s6.21-21.46 3.32-21.38c-3.49.08-5.31 2.61-7.79 6.29-2.69 4-9.41 18.54-15.76 17.2" fill="#fc927a"/><g fill="none" stroke="#49281f" stroke-linecap="round" stroke-miterlimit="10" stroke-width="2"><path d="M294.33 515.34c4.57-1.13 9.68-5 14.36-13.06 10.71-18.46 6.21-21.46 3.32-21.38-3.49.08-5.31 2.61-7.79 6.29-2.69 4-9.41 18.54-15.76 17.2M309.51 484.21s1.14 3.87 4.49 1.54M317.68 483s2.31 3.68 4 1.35M326 486.43s1.54 3.37 3.79 1.54M332.63 491.06a2 2 0 002.95.14"/></g><circle cx="517.64" cy="581.83" fill="#609fd8" r="24.65"/><path d="M685.56 392.87s-25.74 12.49-14.18 82.81M615.24 398.79s-10.52 35.49-3.29 65.06" fill="none" stroke="#49281f" stroke-linecap="round" stroke-miterlimit="10" stroke-width="2"/><g fill="#e8f5fc"><rect height="34.18" rx="17.09" width="225.43" x="341.83" y="227.91"/><rect height="34.18" rx="16.32" width="76.9" x="857.1" y="227.91"/><rect height="49.29" rx="21.89" width="95.96" x="838.04" y="564.41"/></g><path d="M143.46 442.16h78.74a48.64 48.64 0 0148.64 48.64 48.64 48.64 0 01-48.64 48.64h-78.74v-97.28z" fill="#a0caea"/><ellipse cx="143.34" cy="490.8" fill="#a0caea" rx="21.03" ry="48.64"/><path d="M242.25 535.12s-20-25.92-4.92-72.58" fill="none" stroke="#49281f" stroke-linecap="round" stroke-miterlimit="10" stroke-width="2"/><path d="M255.07 492.77c0 11.28 2.35 21.24 5.95 27.32a48.4 48.4 0 009.82-29.29 48.38 48.38 0 00-8.45-27.39c-4.39 5.7-7.32 16.71-7.32 29.36zM77 456a5.62 5.62 0 00-4 1.78c2.36 2.33 3.94 6.67 3.94 11.66s-1.58 9.32-3.94 11.65a5.63 5.63 0 004 1.82c4.36 0 7.89-6 7.89-13.47S81.32 456 77 456z" fill="#609fd8"/><ellipse cx="73.02" cy="469.44" fill="#49281f" rx="3.94" ry="11.66"/><path d="M77 498a5.63 5.63 0 00-4 1.85c2.36 2.33 3.94 6.67 3.94 11.65s-1.58 9.33-3.94 11.66a5.62 5.62 0 004 1.84c4.36 0 7.89-6 7.89-13.47S81.32 498 77 498z" fill="#609fd8"/><ellipse cx="73.02" cy="511.5" fill="#49281f" rx="3.94" ry="11.66"/></svg>