<svg viewBox="0 0 1000 1000" width="1000" height="1000" xmlns="http://www.w3.org/2000/svg"><path d="M369.57 827.11s40.15-90.2 148.21-74.87 145.62 91.2 141.79 114.19c52.11-60.54 33.72-252.14-8.44-265.94s-59-20.69-82-6.13-193.71 201.85-199.56 232.75z" fill="#49281f"/><path d="M528 925.61C432.71 737.68 570.66 579 570.66 579l49.46-1.75s8.62 229.56-6.54 309.85c18.61 32.8 31.42 90.46 31.42 90.46l-108.43.4z" fill="#bcc17c"/><path d="M536.17 978.33c30.56-43.12 7-99 37.06-124.09C710.15 740 691.75 620.42 691.75 620.42s63.68-186.3-63.61-62.85C553 635 489.52 741.77 462.11 802.93c-24.94 55.64-58.56 122.79-63.89 175.4z" fill="#dee099"/><g fill="none" stroke="#bcc17c" stroke-linecap="round" stroke-miterlimit="10" stroke-width="2"><path d="M607.87 604s-150.64 197.3-192 374.34M629.85 610.94S483.2 810.76 452.21 980M475 980s18.27-30 29.77-90.57 130.91-213.27 145.55-276"/><path d="M511.86 980s26.61-71.41 28.91-113.57 89-90.33 111.17-181.2"/></g><path d="M498.62 279.37c12.69 41 14.8 89 4.8 167.37 56.31-7.34 97.52-34.66 97.52-34.66s14.82-9.47 32.43 4.85 23.83 49.78 23.83 49.78-180.9 102-207.64 6.15c-19.54-70 24.53-121.45 18.4-184.3" fill="#fc927a"/><path d="M633.37 416.93c-17.61-14.32-32.43-4.85-32.43-4.85s-41.21 27.32-97.52 34.66c5-39.11 7-70.66 6.11-97.55-7.88 3.46-19.12 6.49-31.79 8.23-6.66.92-41.39-7-47.17-7-9.58 35.62-22 71.57-9.37 114 41.4 139.13 238.37 16.5 238.37 16.5s-8.57-49.67-26.2-63.99z" fill="#c0e4f9"/><path d="M616.59 407.78c35.4-.62 94.32-3.49 132.64 33.3-12 82.76-57.33 179.58-57.33 179.58s-93.53-4.72-121.61-41.33c5.18-30.25 14.45-89.91 14.11-138.66a32.71 32.71 0 0132.19-32.89z" fill="#fff"/><path d="M482.42 251.89s-10.29-14-14.17-23.15-6.07-.33-6.06 5.53 10.66 26.67 8.81 29.43-4.74 10.83-4.18 16.83 27.44-4.35 28.94-15.1-13.34-13.54-13.34-13.54z" fill="#fc927a"/><path d="M462.19 234.27c0 5.86 10.66 26.67 8.81 29.43" fill="none" stroke="#49281f" stroke-linecap="round" stroke-miterlimit="10" stroke-width="2"/><g fill="#fc927a"><path d="M496.37 263s-10.79-27.29-12.61-38.87c-2.16-13.72-6-15.62-8.84-8-4.26 11.24 6.15 51.91 6.15 51.91z"/><path d="M504.43 261s-7.36-35.1-6.62-46.34-8.22-9.36-9.85 4.29 4.54 41.85 2 46.19 15.16-1.14 14.47-4.14z"/><path d="M511.9 272.39a82.12 82.12 0 001.4-29.24c-2.16-16.06 2.64-28.34 1-32.27s-11.51 1.54-13.6 30-2.37 29.58-2.37 29.58zM722.41 422.68c-30.59-12.5-72-15.54-97.64-15.06-8.25 17.88-6.91 37.32 5.14 49.37 16.63 16.63 47.34 12.89 68.59-8.37 8.66-8.62 21.26-15.73 23.91-25.94z"/></g><path d="M718.16 420.63s-84.66 19.13-77 193c7.67 169.16 33 186.13 3.83 275 92 6.13 166.31-36 180.88-65.91s-111.12-167.81-92.73-235.26 16.09-146.38 16.09-146.38-17.7-15.6-31.07-20.45z" fill="#c0e4f9"/><path d="M732.59 92.86L619.92 295.82 139.79 162.87l485.32-8.01z" fill="#eaad34"/><path d="M139.79 162.87l557.79-86.63-24.39 50.88z" fill="#49281f"/><path d="M139.79 162.87l592.8-70.01 97.88 116.45zM697.58 76.24L627.91 20 139.79 162.87z" fill="#fcc74f"/><path d="M500 318.4c23.08-12.88 22.41-49.54 36.53-61.56 3.37-3-5.75-13.44-24.12 9.83-10.77-12.05-29.8-7.4-35.78 2.53s-9.84 11.33-9.84 11.33S471 313 467.44 320" fill="#fc927a"/><path d="M534.85 258.35l-.82-1.22a1.5 1.5 0 00-2.36-.16c-1.33 1.48-3 4.09-1.86 7.11" fill="none" stroke="#49281f" stroke-linecap="round" stroke-miterlimit="10" stroke-width="2"/><path d="M536.56 256.84c3.37-3-5.75-13.44-24.12 9.83-10.77-12.05-29.8-7.4-35.78 2.53" fill="none" stroke="#49281f" stroke-linecap="round" stroke-miterlimit="10" stroke-width="2"/><path d="M727 341.4s23.29-19.63 42.93 5c16.33 25-35.27 59.87-16.89 82.75-17.69.76-51.41-21.53-40.76-57.61C720.89 353.22 727 341.4 727 341.4zM675.1 304.1s-16.89-13.22-29 5.87-15.72 27.56-24.33 24.34c-3 12.34 13.43 25.43 26 23.49s37.7-41.65 27.33-53.7z" fill="#fcc74f"/><path d="M666.23 314.58s-46.31 49.9-4.69 73.35c-7.89 23.18-10.95 34.14-10.95 34.14s28 8.53 42.64-8.37c5-24.12 16.8-78.19 16.8-78.19s-18.44-28.42-43.8-20.93z" fill="#fc927a"/><path d="M732 352.63c-8.71 25.44-34.53 40.83-34.53 40.83 2.91-11.93 7.05-36.31 7.05-36.31s2.57-14.63-4-7.7c-7.65 8.11-9.32 19.05-9.32 19.05s-4.31-2.3-1.17-17.83c0 0-45.75-9.15-30.78-42.93 0 0 12.29-25.45 48.5 9.12 5.59-.69 10.86 1.3 15.25 4.7a27.85 27.85 0 019 31.07z" fill="#fcc74f"/><path d="M691.19 368.5s-4.31-2.3-1.17-17.83c0 0-45.75-9.15-30.78-42.93M723 321.56a27.85 27.85 0 019 31.07c-4.34 12.67-12.92 22.85-20.44 29.87" fill="none" stroke="#49281f" stroke-linecap="round" stroke-miterlimit="10" stroke-width="2"/><path d="M691.19 368.5s7.06-23.45 14.55-21.05c11.66 3.74 2 26.81-11.2 23.5" fill="#fc927a"/><path d="M661.54 387.93s11.41 5.95 21.31.86c-4.05 8.34-20.4 14.93-26.65 15.79z" fill="#c64242"/><path d="M699.46 361.33s2.81-8.4 5.95-5.54M688.58 322.2a53.74 53.74 0 019.25 22.71" fill="none" stroke="#49281f" stroke-linecap="round" stroke-miterlimit="10" stroke-width="2"/><g fill="#fc927a"><path d="M626.31 662.47c31.68-28.93 80.73-60.71 155.92-85-30.62-47.85-72.87-73.47-72.87-73.47s-14.89-9.39-9.42-31.42 34.9-42.74 34.9-42.74 169.31 120.26 93.95 185.27c-55.06 47.48-138.69 29.3-176.85 70.16M605.91 682.84a92.53 92.53 0 00-17.83 27.91c-6.92 17-18.55 26.34-19.13 31.13s12.17 5 30.25-21.81 19-27.71 19-27.71z"/><path d="M637.44 652.42c-30.18 3.88-43.87 28-64.5 31.81-5 1-1.92 16.42 29.21 3.92C606 706 618 702.85 627.76 711.59c4 3.57 13.17 2.51 13.17 2.51s17.33-39 36.45-46.58"/></g><path d="M572.94 684.23c-5 1-1.92 16.42 29.21 3.92M575.47 683.7l.13 1.66a1.69 1.69 0 002.22 1.49c2.14-.71 5.23-2.35 5.83-5.93" fill="none" stroke="#49281f" stroke-linecap="round" stroke-miterlimit="10" stroke-width="2"/><path d="M606.86 698.18s-12.53 38.6-19.58 49.22 2.8 13.82 12.08 1.33 19.08-43.64 24-46.48-15.5-7.39-16.5-4.07z" fill="#fc927a"/><path d="M615.85 700.82s-4.76 32.87-9.49 45.26c-5.6 14.68-2.92 18.69 4.14 12.88 10.51-8.65 23.18-54.43 23.18-54.43z" fill="#fc927a"/><path d="M569 741.88c-.58 4.79 12.17 5 30.25-21.81 2.71-4 5.45-8.06 7.79-11.5" fill="none" stroke="#49281f" stroke-linecap="round" stroke-miterlimit="10" stroke-width="2"/><path d="M617.84 698.75c-7.51 9.7 5.47 20.8 5.47 20.8s2.24 19.52.89 30.69 5.76 3.75 9-2 4.54-32.18 7.92-33.85" fill="#fc927a"/><g fill="none" stroke="#49281f" stroke-linecap="round" stroke-miterlimit="10" stroke-width="2"><path d="M633.25 748.23c3.29-5.76 4.54-32.18 7.92-33.85M585.08 754.93c1.25 3.56 7.9 2.39 14.28-6.2 6.19-8.31 12.59-24.9 17.64-35.89M603.51 759.65c.64 2.72 3.18 2.45 7-.69 6.93-5.7 14.8-27.55 19.35-41.77M572.18 740.14s3.69-1.86 1.73-6.35M587.51 747.4s4.36 1 2.84 5.9M605.5 751.89s3.82 1.55 1.75 5.93M625.46 747.67s2.74 1.57.65 4.86"/></g><path d="M645 407.52s-62.81 47.94-62.84 183c-17.66 25.48-92.74 64.39-189.3 271.32-35.55-44.93-42.92-66.68 5.36-114.2s159.41-164.78 159.41-164.78-14.56-168.61 59-175.5c19.18 0 28.37.16 28.37.16z" fill="#c0e4f9"/><path d="M398.22 747.64c48.28-47.52 159.41-164.78 159.41-164.78s-5.58-64.62 7.63-115.48" fill="none" stroke="#49281f" stroke-linecap="round" stroke-miterlimit="10" stroke-width="2"/><path d="M557.17 523.82c1-18.17 3.35-38.19 8.09-56.44a298.63 298.63 0 00-36 62.6c11.89-.98 27.91-6.16 27.91-6.16z" fill="#49281f"/><path d="M734.84 429.8S696.2 449 690.74 471s4.08 42.88 4.08 42.88 56.79 15.73 87.41 63.56c-40.31 13-73.1 28.21-99.73 43.95a135.39 135.39 0 0112.32 25.72c1.66 4.54 4.59 43.48 5.73 47.72 40.76-11 96-8.56 129.77-45.28 103.62-112.67-95.48-219.75-95.48-219.75z" fill="#c0e4f9"/><path d="M694.82 513.89s56.79 15.73 87.41 63.56c-40.31 13-73.1 28.21-99.73 43.95" fill="none" stroke="#49281f" stroke-linecap="round" stroke-miterlimit="10" stroke-width="2"/><path d="M694.82 513.89a204.9 204.9 0 0148.28 23.76s-3.8 21.14-5 29c-5.73-27.47-43.28-52.76-43.28-52.76zM698.58 694.29c5.3-1.93 5.22-16.09.43-33.94a148.06 148.06 0 00-22.77 8c7.87 16.87 17.01 27.89 22.34 25.94z" fill="#49281f"/><path d="M682.5 621.4q-9.45 5.58-17.88 11.24a144 144 0 006.44 23.15c1.62 4.43 3.37 8.64 5.18 12.53a148.06 148.06 0 0122.77-8c-1.13-4.24-2.53-8.69-4.19-13.23a135.39 135.39 0 00-12.32-25.69z" fill="#fc927a"/><path d="M430.84 351.12c.69 5.07 12.18 7.94 28.08 7.75 2.23-8.29 4.35-16.58 6-24.94-20.26 4.01-34.92 11.16-34.08 17.19z" fill="#49281f"/><path d="M509.53 349.19q-.28-9-1-17.28c-8.63-1.43-20.87-1.39-34.27.46-3.21.44-6.33 1-9.33 1.56-1.68 8.36-3.8 16.65-6 24.94a150.16 150.16 0 0018.82-1.45c12.66-1.74 23.9-4.77 31.78-8.23z" fill="#fc927a"/><g fill="none" stroke-linecap="round" stroke-miterlimit="10" stroke-width="2"><g stroke="#49281f"><path d="M830.47 209.62l-690.53-46.75M509.35 349.11s.77 77.41-10.73 118M699 612.15s22.26 36.61 17.08 79.15M509.17 368.5s-38.52 15.56-83.55 0"/></g><g stroke="#fff"><path d="M640.4 613.52s26.83-177 108.83-172.44M582.16 590.53s-15-133.36 47.69-183.17"/></g></g></svg>